{
	"asset":{
		"generator":"Khronos glTF Blender I/O v3.6.27",
		"version":"2.0"
	},
	"scene":0,
	"scenes":[
		{
			"name":"Scene",
			"nodes":[
				0
			]
		}
	],
	"nodes":[
		{
			"mesh":0,
			"name":"HDDRI",
			"scale":[
				1.1243767738342285,
				1.1243767738342285,
				1.1243767738342285
			],
			"translation":[
				0,
				77.80469512939453,
				0
			]
		}
	],
	"materials":[
		{
			"doubleSided":true,
			"emissiveFactor":[
				1,
				1,
				1
			],
			"name":"Material.001",
			"pbrMetallicRoughness":{
				"baseColorFactor":[
					0,
					0,
					0,
					1
				]
			}
		}
	],
	"meshes":[
		{
			"name":"Sphere",
			"primitives":[
				{
					"attributes":{
						"POSITION":0,
						"NORMAL":1,
						"TEXCOORD_0":2
					},
					"indices":3,
					"material":0
				}
			]
		}
	],
	"accessors":[
		{
			"bufferView":0,
			"componentType":5126,
			"count":1288,
			"max":[
				203.10910034179688,
				141.28106689453125,
				203.10906982421875
			],
			"min":[
				-203.1090087890625,
				-61.82809829711914,
				-203.10919189453125
			],
			"type":"VEC3"
		},
		{
			"bufferView":1,
			"componentType":5126,
			"count":1288,
			"type":"VEC3"
		},
		{
			"bufferView":2,
			"componentType":5126,
			"count":1288,
			"type":"VEC2"
		},
		{
			"bufferView":3,
			"componentType":5123,
			"count":2880,
			"type":"SCALAR"
		}
	],
	"bufferViews":[
		{
			"buffer":0,
			"byteLength":15456,
			"byteOffset":0,
			"target":34962
		},
		{
			"buffer":0,
			"byteLength":15456,
			"byteOffset":15456,
			"target":34962
		},
		{
			"buffer":0,
			"byteLength":10304,
			"byteOffset":30912,
			"target":34962
		},
		{
			"buffer":0,
			"byteLength":5760,
			"byteOffset":41216,
			"target":34963
		}
	],
	"buffers":[
		{
			"byteLength":46976,
			"uri":"data:application/octet-stream;base64,"
		}
	]
}
